<?xml version="1.0" standalone="no"?>
<!DOCTYPE svg PUBLIC "-//W3C//DTD SVG 20010904//EN"
 "http://www.w3.org/TR/2001/REC-SVG-20010904/DTD/svg10.dtd">
<svg version="1.0" xmlns="http://www.w3.org/2000/svg"
 width="500.000000pt" height="280.000000pt" viewBox="0 0 500.000000 280.000000"
 preserveAspectRatio="xMidYMid meet">

<g transform="translate(0.000000,280.000000) scale(0.100000,-0.100000)"
fill="#FFFFFF" stroke="none">
<path fill="#FFFFFF" d="M2889 1591 c12 -8 10 -16 -13 -48 l-28 -38 36 38 c37 38 39 57 8 57
-14 0 -15 -2 -3 -9z"/>
<path fill="#FFFFFF" d="M2246 1577 c5 -15 -26 -47 -50 -51 -17 -2 -56 -48 -56 -65 0 -6 -5
-11 -11 -11 -5 0 -7 5 -3 11 5 8 1 8 -14 0 -31 -16 -83 -13 -105 7 -11 9 -17
12 -14 5 4 -6 4 -13 0 -16 -5 -2 -3 -3 3 -1 7 1 24 -11 40 -27 15 -16 37 -28
48 -28 20 2 20 2 -1 6 -12 2 -27 11 -33 19 -11 12 -4 14 43 14 46 0 57 3 62
19 3 10 28 37 55 60 46 39 64 71 40 71 -5 0 -7 -6 -4 -13z"/>
<path fill="#FFFFFF" d="M2682 1579 c3 -8 20 -22 39 -32 19 -10 25 -12 15 -5 -11 7 -28 21
-39 32 -12 11 -18 13 -15 5z"/>
<path fill="#FFFFFF" d="M2789 1576 c9 -11 8 -22 -7 -50 -11 -19 -21 -33 -24 -31 -2 3 -18
-10 -34 -28 l-29 -32 33 29 c43 40 41 20 -5 -35 -26 -31 -29 -37 -9 -19 15 13
40 44 56 68 15 23 31 38 35 32 3 -5 14 -10 23 -9 12 0 11 3 -5 9 -24 10 -30
25 -13 35 12 8 -6 45 -22 45 -7 0 -7 -4 1 -14z"/>
<path fill="#FFFFFF" d="M2199 1553 c-13 -16 -12 -17 4 -4 9 7 17 15 17 17 0 8 -8 3 -21 -13z"/>
<path d="M3113 1543 c4 -3 -3 -18 -15 -32 l-23 -26 28 24 c29 26 35 41 15 41
-6 0 -8 -3 -5 -7z"/>
<path fill="#FFFFFF" d="M3046 1488 c-48 -55 -59 -88 -28 -88 13 0 14 2 3 9 -17 11 -4 37 46
92 19 21 33 39 30 39 -3 0 -26 -24 -51 -52z"/>
<path fill="#FFFFFF" d="M2327 1523 c8 -3 -2 -22 -27 -55 -41 -51 -48 -68 -29 -68 5 0 8 4 5
9 -4 5 12 32 34 60 36 46 44 50 87 54 40 3 37 4 -17 4 -36 1 -60 -1 -53 -4z"/>
<path fill="#FFFFFF" d="M2929 1521 c11 -7 7 -18 -23 -54 -35 -43 -45 -67 -28 -67 5 0 9 6 9
14 0 8 15 35 34 60 31 41 38 45 84 49 42 3 39 4 -20 5 -44 1 -65 -2 -56 -7z"/>
<path fill="#FFFFFF" d="M2278 1513 c7 -3 16 -2 19 1 4 3 -2 6 -13 5 -11 0 -14 -3 -6 -6z"/>
<path fill="#FFFFFF" d="M2888 1513 c7 -3 16 -2 19 1 4 3 -2 6 -13 5 -11 0 -14 -3 -6 -6z"/>
<path fill="#FFFFFF" d="M1957 1483 c-10 -9 -9 -23 1 -23 5 0 9 7 9 15 0 17 -1 18 -10 8z"/>
<path fill="#FFFFFF" d="M2193 1453 c4 -6 0 -16 -8 -23 -18 -15 -20 -30 -3 -30 6 0 8 3 5 7
-4 3 0 14 9 24 12 13 12 19 3 25 -7 4 -10 3 -6 -3z"/>
<path fill="#FFFFFF" d="M2230 1449 c0 -5 5 -7 10 -4 6 3 10 8 10 11 0 2 -4 4 -10 4 -5 0 -10
-5 -10 -11z"/>
<path fill="#FFFFFF" d="M2465 1450 c3 -5 8 -10 11 -10 2 0 4 5 4 10 0 6 -5 10 -11 10 -5 0
-7 -4 -4 -10z"/>
<path fill="#FFFFFF" d="M2840 1449 c0 -5 5 -7 10 -4 6 3 10 8 10 11 0 2 -4 4 -10 4 -5 0 -10
-5 -10 -11z"/>
<path fill="#FFFFFF" d="M2963 1445 c0 -8 4 -12 9 -9 4 3 8 9 8 15 0 5 -4 9 -8 9 -5 0 -9 -7
-9 -15z"/>
<path fill="#FFFFFF" d="M2327 1443 c-13 -12 -7 -33 8 -33 8 0 15 -3 15 -6 0 -10 -27 -33 -34
-29 -3 3 -4 2 -1 -1 2 -4 -8 -22 -22 -41 -14 -18 -23 -36 -19 -40 9 -9 56 37
56 55 0 8 14 32 31 54 33 40 33 64 1 35 -23 -21 -39 -22 -22 -2 12 14 0 22
-13 8z m-26 -126 l-23 -22 17 28 c10 15 20 25 23 22 3 -3 -5 -16 -17 -28z"/>
<path fill="#FFFFFF" d="M2417 1432 c-18 -20 -22 -32 -9 -32 4 0 12 11 19 25 13 30 12 31 -10
7z"/>
<path fill="#FFFFFF" d="M2500 1430 c-6 -12 -9 -24 -7 -27 3 -2 11 5 17 17 6 12 9 24 7 27 -3
2 -11 -5 -17 -17z"/>
<path fill="#FFFFFF" d="M2542 1430 c-17 -28 -15 -32 8 -20 14 7 20 7 20 0 0 -5 5 -10 11 -10
5 0 8 4 4 9 -3 5 -1 12 5 16 5 3 10 12 10 18 0 7 -7 4 -14 -6 -13 -16 -15 -17
-23 -3 -7 13 -10 13 -21 -4z"/>
<path fill="#FFFFFF" d="M2797 1432 c-20 -22 -21 -32 -5 -32 6 0 8 3 5 7 -4 3 0 15 10 25 9
10 14 18 11 18 -3 0 -12 -8 -21 -18z"/>
<path fill="#FFFFFF" d="M2937 1443 c-14 -13 -7 -43 11 -43 10 0 13 3 6 8 -6 4 -10 15 -8 25
2 19 1 21 -9 10z"/>
<path fill="#FFFFFF" d="M2207 1423 c-10 -9 -9 -23 1 -23 5 0 9 7 9 15 0 17 -1 18 -10 8z"/>
<path fill="#FFFFFF" d="M2436 1422 c-3 -6 -1 -14 5 -17 14 -9 20 -2 10 14 -6 8 -11 9 -15 3z"/>
<path fill="#FFFFFF" d="M2680 1415 c-6 -8 -10 -19 -8 -24 1 -6 8 1 15 14 13 28 11 31 -7 10z"/>
<path fill="#FFFFFF" d="M2817 1423 c-10 -9 -9 -23 1 -23 5 0 9 7 9 15 0 17 -1 18 -10 8z"/>
</g>
</svg>
